<svg width="1000" height="1000" viewBox="0 0 1000 1000" fill="none" xmlns="http://www.w3.org/2000/svg">
<g clip-path="url(#clip0_5_298)">
<mask id="mask0_5_298" style="mask-type:alpha" maskUnits="userSpaceOnUse" x="24" y="-9" width="951" height="961">
<path fill-rule="evenodd" clip-rule="evenodd" d="M645.673 154.031L507.5 -8.5L61 28.5L24 266V573L61 805.5L177.5 952L833 935.5L975 670.5V424L900.5 333.5L830.037 320.112C811.628 286.439 788.099 255.683 760.187 228.989C726.856 197.112 688.016 171.737 645.673 154.031Z" fill="#FF00E5"/>
</mask>
<g mask="url(#mask0_5_298)">
<circle cx="500" cy="500" r="245" stroke="url(#paint0_linear_5_298)" stroke-width="260"/>
<circle cx="500" cy="500" r="95" stroke="white" stroke-width="40"/>
<rect x="650" y="257" width="350" height="25" fill="white"/>
<rect x="650.033" y="257" width="25" height="75" transform="rotate(45 650.033 257)" fill="white"/>
<path d="M296.5 823.5C296.5 832.644 291.34 842.096 280.64 849.749C269.963 857.386 254.574 862.5 237 862.5C219.426 862.5 204.037 857.386 193.36 849.749C182.66 842.096 177.5 832.644 177.5 823.5C177.5 814.356 182.66 804.904 193.36 797.251C204.037 789.614 219.426 784.5 237 784.5C254.574 784.5 269.963 789.614 280.64 797.251C291.34 804.904 296.5 814.356 296.5 823.5Z" stroke="white" stroke-width="25"/>
<line x1="296.5" y1="555" x2="296.5" y2="823" stroke="white" stroke-width="25"/>
<path d="M297 557.5C312.841 629.5 384.5 640.5 384.5 640.5" stroke="white" stroke-width="25"/>
<path d="M798.23 579.91C806.898 582.233 812.083 591.159 809.33 599.701C793.54 648.689 766.314 693.306 729.81 729.81C693.306 766.313 648.689 793.54 599.701 809.329C591.159 812.082 582.233 806.898 579.91 798.229V798.229C577.588 789.561 582.75 780.694 591.277 777.893C634.758 763.612 674.36 739.298 706.829 706.829C739.298 674.359 763.612 634.758 777.894 591.277C780.694 582.75 789.561 577.587 798.23 579.91V579.91Z" fill="white"/>
<path d="M730.917 561.874C739.419 564.152 744.513 572.912 741.708 581.255C729.187 618.502 708.2 652.425 680.312 680.312C652.425 708.2 618.502 729.187 581.255 741.708C572.912 744.513 564.152 739.419 561.874 730.917V730.917C559.596 722.415 564.666 713.73 572.984 710.851C604.834 699.827 633.843 681.703 657.773 657.773C681.703 633.843 699.827 604.834 710.851 572.984C713.73 564.666 722.415 559.596 730.917 561.874V561.874Z" fill="white"/>
<path d="M269.083 438.126C260.581 435.848 255.487 427.088 258.292 418.745C270.813 381.498 291.8 347.575 319.688 319.688C347.575 291.8 381.498 270.813 418.745 258.292C427.088 255.487 435.848 260.581 438.126 269.083V269.083C440.404 277.585 435.334 286.27 427.016 289.149C395.166 300.173 366.157 318.297 342.227 342.227C318.297 366.157 300.173 395.166 289.149 427.016C286.27 435.334 277.585 440.404 269.083 438.126V438.126Z" fill="white"/>
<path d="M201.77 420.09C193.102 417.767 187.917 408.841 190.671 400.299C206.46 351.311 233.686 306.694 270.19 270.19C306.694 233.686 351.311 206.46 400.299 190.671C408.841 187.917 417.767 193.102 420.09 201.77V201.77C422.412 210.439 417.25 219.306 408.723 222.106C365.242 236.388 325.64 260.702 293.171 293.171C260.702 325.64 236.388 365.241 222.106 408.723C219.306 417.25 210.439 422.412 201.77 420.09V420.09Z" fill="white"/>
</g>
</g>
<defs>
<linearGradient id="paint0_linear_5_298" x1="125" y1="125" x2="875" y2="875" gradientUnits="userSpaceOnUse">
<stop stop-color="#FF4D00"/>
<stop offset="0.494792" stop-color="#9600FF"/>
<stop offset="1" stop-color="#00D1FF"/>
</linearGradient>
<clipPath id="clip0_5_298">
<rect width="1000" height="1000" fill="white"/>
</clipPath>
</defs>
</svg>
